<svg id="svg" version="1.1" width="500" height="515" xmlns="http://www.w3.org/2000/svg" xmlns:xlink="http://www.w3.org/1999/xlink" style="display: block;"><g id="svgg"><path id="path0" d="M0.000 206.000 L 0.000 412.000 200.000 412.000 L 400.000 412.000 400.000 206.000 L 400.000 0.000 200.000 0.000 L 0.000 0.000 0.000 206.000 M240.315 28.706 C 241.567 30.089,243.358 30.237,262.404 30.529 C 281.848 30.827,283.268 30.950,285.374 32.506 C 287.029 33.730,289.248 34.270,293.831 34.564 C 298.558 34.867,300.469 35.349,301.822 36.576 C 302.923 37.576,305.247 38.374,307.924 38.672 C 310.648 38.976,312.887 39.754,313.976 40.777 C 314.926 41.670,316.326 42.400,317.088 42.400 C 317.850 42.400,319.326 43.253,320.369 44.296 C 321.412 45.339,323.205 46.429,324.353 46.717 C 325.501 47.005,327.066 47.862,327.831 48.620 C 328.596 49.379,330.207 50.442,331.411 50.983 C 332.615 51.523,333.600 52.456,333.600 53.054 C 333.600 53.653,334.500 54.553,335.600 55.054 C 336.700 55.556,337.600 56.513,337.600 57.183 C 337.600 57.852,338.121 58.400,338.759 58.400 C 340.388 58.400,349.600 67.392,349.600 68.981 C 349.600 69.702,350.302 70.515,351.159 70.787 C 352.017 71.059,352.967 72.073,353.270 73.041 C 353.574 74.008,354.672 75.593,355.711 76.562 C 356.750 77.531,357.600 79.199,357.600 80.270 C 357.600 81.463,358.374 82.723,359.600 83.526 C 361.131 84.529,361.600 85.524,361.600 87.767 C 361.600 89.629,362.204 91.339,363.257 92.461 C 364.274 93.543,365.145 95.925,365.511 98.624 C 365.839 101.043,366.678 103.592,367.374 104.288 C 370.156 107.071,370.451 142.812,367.734 148.000 C 366.927 149.540,365.958 152.913,365.581 155.497 C 365.135 158.548,364.317 160.731,363.247 161.728 C 362.341 162.572,361.600 163.992,361.600 164.884 C 361.600 167.183,360.151 169.600,358.772 169.600 C 358.073 169.600,357.600 170.364,357.600 171.490 C 357.600 172.529,356.520 174.739,355.200 176.400 C 353.880 178.061,352.800 179.706,352.800 180.056 C 352.800 180.406,352.119 180.908,351.286 181.173 C 350.454 181.437,349.588 182.359,349.362 183.222 C 349.137 184.086,348.288 185.037,347.476 185.336 C 346.664 185.636,345.234 186.628,344.298 187.540 C 339.771 191.955,337.405 193.600,335.586 193.600 C 334.375 193.600,333.600 194.057,333.600 194.772 C 333.600 196.322,331.094 197.600,328.053 197.600 C 323.165 197.600,324.585 202.099,329.626 202.583 C 332.178 202.828,334.302 203.576,335.426 204.626 C 336.402 205.536,338.199 206.529,339.421 206.833 C 340.643 207.136,341.983 208.021,342.399 208.799 C 342.816 209.577,344.406 210.448,345.933 210.735 C 347.599 211.047,348.894 211.836,349.170 212.706 C 349.424 213.504,350.524 214.564,351.615 215.061 C 352.707 215.559,353.600 216.471,353.600 217.090 C 353.600 217.708,354.347 218.409,355.259 218.647 C 356.172 218.886,357.105 219.795,357.333 220.667 C 357.561 221.539,358.461 222.439,359.333 222.667 C 360.205 222.895,361.105 223.795,361.333 224.667 C 361.561 225.539,362.433 226.431,363.270 226.650 C 364.107 226.869,365.037 227.712,365.336 228.524 C 365.636 229.336,366.718 230.793,367.740 231.762 C 368.894 232.855,369.600 234.449,369.600 235.962 C 369.600 237.303,369.934 238.400,370.343 238.400 C 371.781 238.400,373.600 240.937,373.600 242.942 C 373.600 244.057,374.500 246.039,375.600 247.346 C 377.213 249.263,377.600 250.591,377.600 254.210 C 377.600 257.762,377.975 259.096,379.400 260.612 C 381.990 263.369,382.238 302.684,379.683 305.508 C 378.648 306.651,378.004 308.956,377.655 312.757 C 377.272 316.939,376.702 318.801,375.372 320.217 C 374.398 321.254,373.600 323.087,373.600 324.290 C 373.600 325.595,372.793 327.224,371.600 328.330 C 370.424 329.420,369.600 331.068,369.600 332.330 C 369.600 333.592,368.776 335.240,367.600 336.330 C 366.500 337.349,365.600 338.728,365.600 339.394 C 365.600 340.059,365.036 341.072,364.347 341.644 C 363.658 342.216,362.527 343.790,361.833 345.142 C 360.721 347.306,359.928 348.293,356.400 351.902 C 355.135 353.197,346.776 360.978,344.049 363.400 C 342.687 364.610,340.764 365.600,339.776 365.600 C 338.682 365.600,337.670 366.302,337.190 367.395 C 336.755 368.383,335.680 369.313,334.800 369.463 C 333.920 369.613,332.840 370.186,332.400 370.737 C 331.120 372.340,328.279 373.600,325.944 373.600 C 324.667 373.600,323.026 374.418,321.930 375.600 C 320.408 377.242,319.328 377.600,315.890 377.600 C 312.681 377.600,311.267 378.010,309.836 379.354 C 308.259 380.836,306.819 381.159,300.584 381.430 C 295.199 381.665,292.940 382.083,292.238 382.976 C 290.346 385.387,282.777 385.531,156.228 385.565 C 30.309 385.599,28.042 385.573,27.228 384.053 C 26.773 383.202,26.400 379.447,26.400 375.710 C 26.400 367.997,27.269 366.400,31.465 366.400 C 33.149 366.400,34.355 365.856,35.014 364.800 C 35.564 363.920,36.498 363.200,37.090 363.200 C 37.682 363.200,39.119 362.317,40.283 361.238 L 42.400 359.276 42.400 208.038 C 42.400 39.731,42.887 54.699,37.369 53.314 C 36.235 53.029,35.078 52.077,34.799 51.198 C 34.407 49.961,33.588 49.600,31.174 49.600 C 28.826 49.600,27.834 49.185,27.158 47.921 C 25.882 45.537,26.466 30.243,27.898 28.521 C 29.723 26.326,238.326 26.508,240.315 28.706 M97.794 125.230 L 98.000 176.860 178.986 176.815 C 225.767 176.790,260.784 176.462,261.894 176.040 C 262.950 175.639,267.307 175.054,271.576 174.740 C 276.892 174.350,279.468 173.833,279.749 173.101 C 280.228 171.852,284.908 170.411,288.507 170.404 C 290.327 170.401,291.126 169.968,291.426 168.822 C 291.719 167.702,292.790 167.093,295.119 166.720 C 297.076 166.407,298.400 165.761,298.400 165.118 C 298.400 164.526,299.390 163.488,300.600 162.811 C 301.810 162.135,303.700 160.487,304.800 159.149 C 305.900 157.811,307.557 155.872,308.482 154.840 C 309.407 153.808,310.383 151.615,310.650 149.967 C 310.918 148.319,311.837 146.212,312.692 145.285 C 315.670 142.059,316.044 109.600,313.103 109.600 C 311.806 109.600,310.400 106.452,310.400 103.548 C 310.400 102.365,309.937 101.600,309.221 101.600 C 308.572 101.600,307.505 100.564,306.850 99.297 C 306.195 98.030,305.106 96.782,304.430 96.522 C 303.753 96.263,303.200 95.499,303.200 94.825 C 303.200 94.151,302.668 93.600,302.018 93.600 C 301.369 93.600,300.270 92.734,299.576 91.676 C 298.883 90.618,297.478 89.542,296.453 89.285 C 295.429 89.028,294.402 88.094,294.170 87.209 C 293.847 85.973,293.082 85.600,290.870 85.600 C 288.794 85.600,287.503 85.041,286.250 83.600 C 285.200 82.392,283.658 81.600,282.356 81.600 C 278.605 81.600,275.364 80.672,273.700 79.121 C 272.222 77.745,269.990 77.576,246.724 77.079 C 223.496 76.583,221.254 76.414,220.102 75.069 C 218.902 73.668,216.047 73.600,158.216 73.600 L 97.588 73.600 97.794 125.230 M97.933 223.933 C 97.750 224.117,97.600 250.148,97.600 281.782 L 97.600 339.297 189.936 339.048 L 282.272 338.800 284.136 337.084 C 285.290 336.021,287.637 335.149,290.294 334.796 C 292.690 334.477,295.834 333.379,297.406 332.312 C 298.955 331.260,300.851 330.400,301.618 330.400 C 302.386 330.400,303.195 329.704,303.418 328.853 C 303.686 327.827,304.817 327.119,306.774 326.752 C 308.420 326.443,309.964 325.597,310.263 324.840 C 310.860 323.329,313.653 319.596,317.000 315.835 C 318.210 314.475,319.200 312.932,319.200 312.405 C 319.200 311.879,319.881 310.832,320.714 310.078 C 321.653 309.228,322.431 307.073,322.766 304.396 C 323.062 302.023,324.001 299.197,324.852 298.115 C 327.236 295.084,327.182 272.194,324.784 268.949 C 323.886 267.735,322.940 264.815,322.656 262.382 C 322.325 259.555,321.644 257.645,320.735 256.999 C 319.960 256.448,319.100 254.968,318.824 253.709 C 318.547 252.450,317.439 250.653,316.361 249.715 C 315.282 248.778,314.400 247.510,314.400 246.899 C 314.400 246.287,313.653 245.591,312.741 245.353 C 311.828 245.114,310.886 244.172,310.647 243.259 C 310.409 242.347,309.562 241.600,308.765 241.600 C 307.968 241.600,306.624 240.720,305.779 239.646 C 304.933 238.571,303.300 237.455,302.149 237.166 C 300.999 236.877,299.840 235.957,299.575 235.120 C 299.209 233.968,298.335 233.600,295.965 233.600 C 293.551 233.600,292.551 233.164,291.586 231.691 C 290.537 230.090,289.530 229.731,285.334 229.464 C 281.831 229.241,279.586 228.614,277.842 227.373 C 275.409 225.640,274.828 225.600,252.024 225.600 C 238.281 225.600,228.091 225.277,227.226 224.814 C 225.812 224.057,98.675 223.191,97.933 223.933 " stroke="none" fill="#ffffff" fill-rule="evenodd"></path><path id="path1" d="M29.768 39.712 L 30.000 46.800 33.600 47.246 C 37.859 47.774,44.384 51.945,45.094 54.592 C 45.746 57.027,45.739 358.307,45.086 361.569 C 44.739 363.304,43.895 364.425,42.486 365.022 C 41.339 365.508,39.612 366.598,38.650 367.445 C 37.687 368.292,35.243 369.172,33.219 369.400 L 29.539 369.815 29.769 376.307 L 30.000 382.800 155.716 382.800 C 280.257 382.800,281.449 382.785,283.198 381.202 C 284.626 379.910,286.563 379.505,293.326 379.086 C 299.766 378.687,302.057 378.234,303.291 377.117 C 304.378 376.134,306.866 375.478,311.023 375.081 C 315.217 374.681,317.449 374.089,318.095 373.206 C 318.613 372.496,320.419 371.535,322.106 371.069 C 323.794 370.603,326.007 369.566,327.025 368.766 C 328.043 367.966,330.028 367.057,331.438 366.748 C 332.847 366.438,334.470 365.513,335.045 364.693 C 335.620 363.872,336.590 363.200,337.200 363.200 C 337.810 363.200,338.780 362.542,339.355 361.738 C 339.930 360.934,341.000 359.944,341.734 359.538 C 343.640 358.484,354.425 347.891,356.800 344.741 C 357.900 343.282,359.790 341.114,361.000 339.923 C 362.210 338.732,363.200 337.144,363.200 336.395 C 363.200 335.645,364.100 333.961,365.200 332.654 C 366.300 331.347,367.200 329.547,367.200 328.654 C 367.200 327.761,368.100 325.961,369.200 324.654 C 370.300 323.347,371.200 321.273,371.200 320.047 C 371.200 318.820,371.922 316.898,372.804 315.776 C 373.940 314.333,374.609 311.758,375.095 306.969 C 375.472 303.247,376.036 299.788,376.349 299.283 C 377.003 298.225,377.134 269.988,376.490 268.946 C 376.256 268.567,375.656 264.898,375.156 260.794 C 374.590 256.132,373.705 252.556,372.799 251.266 C 372.002 250.130,371.129 247.899,370.859 246.310 C 370.589 244.720,369.656 242.774,368.784 241.986 C 367.913 241.197,367.200 239.940,367.200 239.193 C 367.200 238.445,366.300 236.863,365.200 235.676 C 364.100 234.489,363.200 232.694,363.200 231.687 C 363.200 230.511,362.485 229.531,361.200 228.946 C 360.100 228.444,359.200 227.544,359.200 226.946 C 359.200 226.347,358.300 225.447,357.200 224.946 C 356.100 224.444,355.200 223.544,355.200 222.946 C 355.200 222.347,354.300 221.447,353.200 220.946 C 352.100 220.444,351.200 219.566,351.200 218.993 C 351.200 218.420,350.120 217.543,348.800 217.045 C 347.480 216.547,346.400 215.614,346.400 214.972 C 346.400 214.230,345.242 213.619,343.225 213.297 C 341.235 212.979,339.732 212.194,339.197 211.195 C 338.728 210.318,337.613 209.600,336.719 209.600 C 334.881 209.600,331.994 208.218,330.800 206.766 C 330.360 206.231,328.275 205.575,326.168 205.308 C 317.201 204.171,316.698 196.316,325.502 194.908 C 327.167 194.642,329.187 193.699,329.989 192.812 C 330.791 191.925,332.010 191.200,332.696 191.200 C 333.382 191.200,334.676 190.479,335.572 189.598 C 338.904 186.320,344.188 182.400,345.276 182.400 C 345.894 182.400,346.400 181.998,346.400 181.506 C 346.400 181.014,347.390 179.396,348.600 177.911 C 349.810 176.425,351.790 173.988,353.000 172.495 C 354.210 171.002,355.200 169.220,355.200 168.536 C 355.200 167.851,355.889 166.808,356.731 166.218 C 357.574 165.628,358.507 163.718,358.806 161.973 C 359.105 160.228,360.060 157.792,360.928 156.561 C 363.549 152.841,366.558 119.557,364.511 116.921 C 364.050 116.328,363.463 112.367,363.207 108.120 C 362.842 102.060,362.378 99.881,361.051 97.998 C 360.070 96.606,359.169 93.755,358.904 91.200 C 358.572 88.011,358.000 86.498,356.823 85.702 C 355.930 85.099,355.200 84.060,355.200 83.394 C 355.200 82.728,354.293 81.343,353.185 80.316 C 352.076 79.289,350.958 77.389,350.699 76.095 C 350.423 74.717,349.601 73.578,348.714 73.346 C 347.811 73.110,347.200 72.244,347.200 71.200 C 347.200 70.161,346.590 69.291,345.698 69.057 C 344.871 68.841,343.799 67.795,343.315 66.732 C 342.830 65.669,341.911 64.800,341.271 64.800 C 340.631 64.800,339.879 64.080,339.600 63.200 C 339.321 62.320,338.753 61.600,338.339 61.600 C 337.924 61.600,336.455 60.520,335.074 59.200 C 333.693 57.880,332.280 56.800,331.935 56.800 C 331.590 56.800,331.091 56.118,330.827 55.284 C 330.529 54.346,329.292 53.570,327.582 53.249 C 326.063 52.964,324.458 52.056,324.016 51.231 C 323.575 50.405,322.168 49.500,320.890 49.220 C 319.612 48.939,317.951 48.030,317.200 47.200 C 316.449 46.370,314.701 45.451,313.317 45.159 C 311.933 44.867,310.080 43.992,309.200 43.215 C 308.320 42.438,305.620 41.553,303.200 41.249 C 300.763 40.943,298.086 40.051,297.200 39.251 C 295.988 38.156,293.660 37.678,287.600 37.279 C 281.777 36.896,278.729 36.294,276.400 35.065 L 273.200 33.378 151.368 33.001 L 29.535 32.625 29.768 39.712 M256.092 72.685 C 257.601 73.859,260.080 74.289,267.952 74.742 C 276.868 75.255,278.145 75.517,280.214 77.257 C 281.675 78.486,283.529 79.200,285.261 79.200 C 286.884 79.200,288.619 79.819,289.519 80.719 C 290.354 81.554,292.127 82.477,293.460 82.769 C 294.792 83.062,296.457 84.178,297.160 85.251 C 297.862 86.323,298.944 87.200,299.565 87.200 C 300.975 87.200,309.600 95.470,309.600 96.822 C 309.600 97.369,310.500 98.651,311.600 99.670 C 312.700 100.690,313.600 102.208,313.600 103.045 C 313.600 103.882,314.500 105.537,315.600 106.724 C 317.009 108.245,317.600 109.787,317.600 111.943 C 317.600 113.688,318.116 115.432,318.800 116.000 C 320.471 117.387,320.471 134.676,318.800 137.600 C 318.171 138.700,317.644 140.716,317.628 142.081 C 317.590 145.441,316.141 149.375,314.744 149.911 C 314.115 150.152,313.600 151.278,313.600 152.413 C 313.600 153.548,312.755 155.269,311.722 156.238 C 310.689 157.207,309.416 158.810,308.894 159.800 C 308.371 160.790,307.416 161.600,306.772 161.600 C 306.127 161.600,305.600 162.014,305.600 162.519 C 305.600 163.890,300.569 168.515,298.341 169.193 C 297.274 169.518,295.642 170.477,294.715 171.324 C 293.788 172.170,291.628 173.077,289.915 173.338 C 288.202 173.598,286.048 174.492,285.129 175.324 C 283.988 176.357,281.705 176.991,277.929 177.325 C 274.888 177.594,271.860 178.253,271.200 178.790 C 268.101 181.313,258.618 181.600,178.498 181.600 C 131.979 181.600,97.697 181.293,96.576 180.867 C 91.720 179.021,92.000 182.404,92.000 125.588 L 92.000 73.691 93.778 72.445 C 96.778 70.344,253.381 70.575,256.092 72.685 M243.782 219.817 C 254.752 219.915,258.077 220.205,260.075 221.239 C 261.740 222.100,265.886 222.729,272.389 223.109 C 279.156 223.503,282.788 224.070,284.114 224.939 C 285.171 225.631,287.575 226.458,289.458 226.776 C 291.341 227.094,293.493 228.008,294.241 228.807 C 294.988 229.605,297.040 230.523,298.800 230.845 C 300.560 231.167,303.166 232.369,304.591 233.515 C 309.094 237.139,321.600 249.720,321.600 250.627 C 321.600 251.106,322.334 252.278,323.232 253.234 C 324.129 254.189,325.088 256.372,325.364 258.085 C 325.639 259.798,326.614 262.220,327.532 263.468 C 330.128 266.996,330.106 301.275,327.506 304.136 C 326.574 305.161,325.592 307.439,325.324 309.197 C 325.056 310.956,324.344 312.756,323.741 313.197 C 323.139 313.639,322.087 315.081,321.405 316.402 C 320.722 317.723,319.407 319.489,318.482 320.326 C 317.557 321.163,316.800 322.180,316.800 322.587 C 316.800 323.530,310.512 329.600,309.535 329.600 C 309.131 329.600,308.089 330.311,307.220 331.180 C 306.352 332.048,304.651 333.008,303.442 333.311 C 302.233 333.615,300.694 334.535,300.022 335.356 C 299.350 336.177,297.360 337.065,295.600 337.330 C 293.840 337.595,291.642 338.498,290.716 339.337 C 289.430 340.501,287.348 340.969,281.916 341.315 C 277.459 341.600,273.584 342.336,271.547 343.285 C 268.419 344.742,265.013 344.800,182.219 344.800 L 96.142 344.800 94.071 342.339 L 92.000 339.877 92.000 281.502 L 92.000 223.127 93.977 221.150 L 95.954 219.173 162.977 219.433 C 199.840 219.576,236.202 219.749,243.782 219.817 " stroke="none" fill="#00a2e8" fill-rule="evenodd"></path><path id="path2" d="M28.837 32.638 C 26.180 38.469,28.173 48.000,32.048 48.000 C 33.219 48.000,35.503 48.900,37.124 50.000 C 38.745 51.100,40.359 52.000,40.712 52.000 C 44.155 52.000,44.017 45.036,43.802 208.411 L 43.600 361.892 39.200 364.945 C 36.780 366.624,33.966 367.998,32.947 367.999 C 28.727 368.002,28.000 369.167,28.000 375.930 C 28.000 380.335,28.334 382.481,29.121 383.135 C 30.709 384.452,282.438 384.017,284.077 382.693 C 285.635 381.436,292.882 380.000,297.671 380.000 C 300.121 380.000,302.909 379.365,304.887 378.356 C 306.659 377.452,309.975 376.504,312.255 376.251 C 314.535 375.997,318.020 374.978,320.000 373.987 C 321.980 372.995,326.120 370.985,329.200 369.520 C 332.280 368.054,334.980 366.608,335.200 366.307 C 335.420 366.005,337.654 364.373,340.165 362.679 C 350.020 356.032,361.034 343.595,366.458 332.988 C 368.098 329.780,369.789 326.716,370.216 326.178 C 370.643 325.640,371.453 323.769,372.017 322.019 C 372.582 320.270,373.707 317.750,374.519 316.419 C 375.343 315.068,375.995 312.491,375.997 310.580 C 375.999 308.699,376.720 305.111,377.600 302.608 C 379.942 295.946,379.942 272.588,377.600 264.400 C 376.720 261.323,376.000 257.688,376.000 256.322 C 376.000 254.956,375.142 252.224,374.092 250.251 C 373.043 248.278,371.936 245.528,371.631 244.141 C 371.326 242.753,370.776 241.433,370.409 241.205 C 370.041 240.978,368.293 238.155,366.524 234.932 C 362.891 228.312,347.933 213.190,344.130 212.293 C 342.959 212.016,341.280 211.184,340.400 210.444 C 337.852 208.301,330.657 204.919,327.394 204.330 C 320.370 203.062,319.823 198.406,326.420 196.042 C 335.672 192.727,347.377 183.312,353.328 174.400 C 359.363 165.360,360.000 164.287,360.000 163.151 C 360.000 162.511,360.850 160.370,361.889 158.394 C 362.928 156.417,364.028 152.854,364.333 150.475 C 364.639 148.096,365.408 145.144,366.044 143.915 C 367.475 141.147,367.686 118.941,366.315 115.452 C 365.828 114.213,365.103 110.388,364.704 106.952 C 364.306 103.515,363.130 98.655,362.092 96.152 C 361.053 93.648,359.971 90.299,359.686 88.710 C 359.402 87.120,358.456 85.174,357.584 84.386 C 356.713 83.597,356.000 82.592,356.000 82.152 C 356.000 81.711,355.100 80.171,354.000 78.729 C 352.900 77.287,352.000 75.862,352.000 75.563 C 352.000 74.652,347.844 69.730,343.200 65.140 C 331.929 54.001,329.698 52.000,328.548 52.000 C 327.869 52.000,326.816 51.502,326.207 50.893 C 325.598 50.284,323.682 49.018,321.950 48.080 C 320.217 47.142,316.518 45.119,313.729 43.585 C 310.939 42.051,307.159 40.560,305.329 40.271 C 303.498 39.983,300.611 39.027,298.913 38.147 C 297.205 37.262,293.094 36.263,289.713 35.912 C 286.351 35.563,281.620 34.677,279.200 33.944 C 272.474 31.906,250.661 31.482,134.237 31.122 L 29.675 30.800 28.837 32.638 M276.400 35.065 C 278.729 36.294,281.777 36.896,287.600 37.279 C 293.660 37.678,295.988 38.156,297.200 39.251 C 298.086 40.051,300.763 40.943,303.200 41.249 C 305.620 41.553,308.320 42.438,309.200 43.215 C 310.080 43.992,311.933 44.867,313.317 45.159 C 314.701 45.451,316.449 46.370,317.200 47.200 C 317.951 48.030,319.612 48.939,320.890 49.220 C 322.168 49.500,323.575 50.405,324.016 51.231 C 324.458 52.056,326.063 52.964,327.582 53.249 C 329.292 53.570,330.529 54.346,330.827 55.284 C 331.091 56.118,331.590 56.800,331.935 56.800 C 332.280 56.800,333.693 57.880,335.074 59.200 C 336.455 60.520,337.924 61.600,338.339 61.600 C 338.753 61.600,339.321 62.320,339.600 63.200 C 339.879 64.080,340.631 64.800,341.271 64.800 C 341.911 64.800,342.830 65.669,343.315 66.732 C 343.799 67.795,344.871 68.841,345.698 69.057 C 346.590 69.291,347.200 70.161,347.200 71.200 C 347.200 72.244,347.811 73.110,348.714 73.346 C 349.601 73.578,350.423 74.717,350.699 76.095 C 350.958 77.389,352.076 79.289,353.185 80.316 C 354.293 81.343,355.200 82.728,355.200 83.394 C 355.200 84.060,355.930 85.099,356.823 85.702 C 358.000 86.498,358.572 88.011,358.904 91.200 C 359.169 93.755,360.070 96.606,361.051 97.998 C 362.378 99.881,362.842 102.060,363.207 108.120 C 363.463 112.367,364.050 116.328,364.511 116.921 C 366.558 119.557,363.549 152.841,360.928 156.561 C 360.060 157.792,359.105 160.228,358.806 161.973 C 358.507 163.718,357.574 165.628,356.731 166.218 C 355.889 166.808,355.200 167.851,355.200 168.536 C 355.200 169.220,354.210 171.002,353.000 172.495 C 351.790 173.988,349.810 176.425,348.600 177.911 C 347.390 179.396,346.400 181.014,346.400 181.506 C 346.400 181.998,345.894 182.400,345.276 182.400 C 344.188 182.400,338.904 186.320,335.572 189.598 C 334.676 190.479,333.382 191.200,332.696 191.200 C 332.010 191.200,330.791 191.925,329.989 192.812 C 329.187 193.699,327.167 194.642,325.502 194.908 C 316.698 196.316,317.201 204.171,326.168 205.308 C 328.275 205.575,330.360 206.231,330.800 206.766 C 331.994 208.218,334.881 209.600,336.719 209.600 C 337.613 209.600,338.728 210.318,339.197 211.195 C 339.732 212.194,341.235 212.979,343.225 213.297 C 345.242 213.619,346.400 214.230,346.400 214.972 C 346.400 215.614,347.480 216.547,348.800 217.045 C 350.120 217.543,351.200 218.420,351.200 218.993 C 351.200 219.566,352.100 220.444,353.200 220.946 C 354.300 221.447,355.200 222.347,355.200 222.946 C 355.200 223.544,356.100 224.444,357.200 224.946 C 358.300 225.447,359.200 226.347,359.200 226.946 C 359.200 227.544,360.100 228.444,361.200 228.946 C 362.485 229.531,363.200 230.511,363.200 231.687 C 363.200 232.694,364.100 234.489,365.200 235.676 C 366.300 236.863,367.200 238.445,367.200 239.193 C 367.200 239.940,367.913 241.197,368.784 241.986 C 369.656 242.774,370.589 244.720,370.859 246.310 C 371.129 247.899,372.002 250.130,372.799 251.266 C 373.705 252.556,374.590 256.132,375.156 260.794 C 375.656 264.898,376.256 268.567,376.490 268.946 C 377.134 269.988,377.003 298.225,376.349 299.283 C 376.036 299.788,375.472 303.247,375.095 306.969 C 374.609 311.758,373.940 314.333,372.804 315.776 C 371.922 316.898,371.200 318.820,371.200 320.047 C 371.200 321.273,370.300 323.347,369.200 324.654 C 368.100 325.961,367.200 327.761,367.200 328.654 C 367.200 329.547,366.300 331.347,365.200 332.654 C 364.100 333.961,363.200 335.645,363.200 336.395 C 363.200 337.144,362.210 338.732,361.000 339.923 C 359.790 341.114,357.900 343.282,356.800 344.741 C 354.425 347.891,343.640 358.484,341.734 359.538 C 341.000 359.944,339.930 360.934,339.355 361.738 C 338.780 362.542,337.810 363.200,337.200 363.200 C 336.590 363.200,335.620 363.872,335.045 364.693 C 334.470 365.513,332.847 366.438,331.438 366.748 C 330.028 367.057,328.043 367.966,327.025 368.766 C 326.007 369.566,323.794 370.603,322.106 371.069 C 320.419 371.535,318.613 372.496,318.095 373.206 C 317.449 374.089,315.217 374.681,311.023 375.081 C 306.866 375.478,304.378 376.134,303.291 377.117 C 302.057 378.234,299.766 378.687,293.326 379.086 C 286.563 379.505,284.626 379.910,283.198 381.202 C 281.449 382.785,280.257 382.800,155.716 382.800 L 30.000 382.800 29.769 376.307 L 29.539 369.815 33.219 369.400 C 35.243 369.172,37.687 368.292,38.650 367.445 C 39.612 366.598,41.339 365.508,42.486 365.022 C 43.895 364.425,44.739 363.304,45.086 361.569 C 45.739 358.307,45.746 57.027,45.094 54.592 C 44.384 51.945,37.859 47.774,33.600 47.246 L 30.000 46.800 29.768 39.712 L 29.535 32.625 151.368 33.001 L 273.200 33.378 276.400 35.065 M93.778 72.445 L 92.000 73.691 92.000 125.588 C 92.000 182.404,91.720 179.021,96.576 180.867 C 97.697 181.293,131.979 181.600,178.498 181.600 C 258.618 181.600,268.101 181.313,271.200 178.790 C 271.860 178.253,274.888 177.594,277.929 177.325 C 281.705 176.991,283.988 176.357,285.129 175.324 C 286.048 174.492,288.202 173.598,289.915 173.338 C 291.628 173.077,293.788 172.170,294.715 171.324 C 295.642 170.477,297.274 169.518,298.341 169.193 C 300.569 168.515,305.600 163.890,305.600 162.519 C 305.600 162.014,306.127 161.600,306.772 161.600 C 307.416 161.600,308.371 160.790,308.894 159.800 C 309.416 158.810,310.689 157.207,311.722 156.238 C 312.755 155.269,313.600 153.548,313.600 152.413 C 313.600 151.278,314.115 150.152,314.744 149.911 C 316.141 149.375,317.590 145.441,317.628 142.081 C 317.644 140.716,318.171 138.700,318.800 137.600 C 320.471 134.676,320.471 117.387,318.800 116.000 C 318.116 115.432,317.600 113.688,317.600 111.943 C 317.600 109.787,317.009 108.245,315.600 106.724 C 314.500 105.537,313.600 103.882,313.600 103.045 C 313.600 102.208,312.700 100.690,311.600 99.670 C 310.500 98.651,309.600 97.369,309.600 96.822 C 309.600 95.470,300.975 87.200,299.565 87.200 C 298.944 87.200,297.862 86.323,297.160 85.251 C 296.457 84.178,294.792 83.062,293.460 82.769 C 292.127 82.477,290.354 81.554,289.519 80.719 C 288.619 79.819,286.884 79.200,285.261 79.200 C 283.529 79.200,281.675 78.486,280.214 77.257 C 278.145 75.517,276.868 75.255,267.952 74.742 C 260.080 74.289,257.601 73.859,256.092 72.685 C 253.381 70.575,96.778 70.344,93.778 72.445 M238.000 73.477 C 261.347 74.510,275.159 76.150,278.644 78.304 C 280.154 79.237,282.355 80.000,283.537 80.000 C 284.718 80.000,287.009 80.900,288.628 82.000 C 290.247 83.100,292.052 84.000,292.640 84.000 C 296.184 84.000,312.800 101.149,312.800 104.807 C 312.800 105.547,313.484 106.771,314.321 107.528 C 318.160 111.003,318.497 144.131,314.725 147.262 C 314.151 147.738,313.252 149.449,312.726 151.064 C 311.356 155.272,300.283 167.914,297.912 167.977 C 297.423 167.989,295.724 168.882,294.136 169.959 C 292.549 171.037,289.888 172.160,288.225 172.456 C 286.561 172.752,284.078 173.671,282.706 174.497 C 281.334 175.324,279.174 176.000,277.905 176.000 C 274.785 176.000,265.455 177.993,263.382 179.103 C 259.861 180.987,97.907 180.307,96.000 178.400 C 93.657 176.057,93.464 74.230,95.800 72.856 C 97.504 71.854,212.676 72.357,238.000 73.477 M93.977 221.150 L 92.000 223.127 92.000 281.502 L 92.000 339.877 94.071 342.339 L 96.142 344.800 182.219 344.800 C 265.013 344.800,268.419 344.742,271.547 343.285 C 273.584 342.336,277.459 341.600,281.916 341.315 C 287.348 340.969,289.430 340.501,290.716 339.337 C 291.642 338.498,293.840 337.595,295.600 337.330 C 297.360 337.065,299.350 336.177,300.022 335.356 C 300.694 334.535,302.233 333.615,303.442 333.311 C 304.651 333.008,306.352 332.048,307.220 331.180 C 308.089 330.311,309.131 329.600,309.535 329.600 C 310.512 329.600,316.800 323.530,316.800 322.587 C 316.800 322.180,317.557 321.163,318.482 320.326 C 319.407 319.489,320.722 317.723,321.405 316.402 C 322.087 315.081,323.139 313.639,323.741 313.197 C 324.344 312.756,325.056 310.956,325.324 309.197 C 325.592 307.439,326.574 305.161,327.506 304.136 C 330.106 301.275,330.128 266.996,327.532 263.468 C 326.614 262.220,325.639 259.798,325.364 258.085 C 325.088 256.372,324.129 254.189,323.232 253.234 C 322.334 252.278,321.600 251.106,321.600 250.627 C 321.600 249.720,309.094 237.139,304.591 233.515 C 303.166 232.369,300.560 231.167,298.800 230.845 C 297.040 230.523,294.988 229.605,294.241 228.807 C 293.493 228.008,291.341 227.094,289.458 226.776 C 287.575 226.458,285.171 225.631,284.114 224.939 C 282.788 224.070,279.156 223.503,272.389 223.109 C 265.886 222.729,261.740 222.100,260.075 221.239 C 257.168 219.736,261.465 219.816,162.977 219.433 L 95.954 219.173 93.977 221.150 M228.015 221.608 C 228.846 222.053,236.472 222.565,244.963 222.746 C 266.577 223.208,278.270 224.195,281.316 225.816 C 282.700 226.552,285.400 227.400,287.316 227.700 C 289.232 228.000,292.054 229.091,293.586 230.123 C 295.118 231.155,296.930 232.000,297.613 232.000 C 298.888 232.000,305.925 236.260,308.186 238.400 C 315.602 245.423,320.000 250.031,320.000 250.780 C 320.000 251.280,320.896 252.903,321.990 254.387 C 323.085 255.871,324.220 258.371,324.513 259.943 C 324.805 261.514,325.737 264.133,326.583 265.761 C 329.018 270.449,328.428 298.931,325.800 303.588 C 324.810 305.342,323.994 307.502,323.988 308.388 C 323.981 309.275,322.711 311.800,321.165 314.000 C 319.620 316.200,317.760 318.900,317.034 320.000 C 314.698 323.535,310.876 327.298,308.000 328.895 C 306.460 329.751,303.513 331.495,301.452 332.771 C 296.103 336.084,284.608 339.769,277.600 340.419 C 274.300 340.725,270.160 341.471,268.400 342.076 C 265.765 342.983,250.426 343.179,181.458 343.188 L 97.716 343.200 96.043 341.073 C 93.813 338.238,93.772 222.991,96.000 221.583 C 97.688 220.516,226.020 220.541,228.015 221.608 " stroke="none" fill="#5fbeee" fill-rule="evenodd"></path><path id="path3" d="M28.080 32.114 C 25.354 39.933,27.435 48.800,31.996 48.800 C 33.262 48.800,35.335 49.690,36.654 50.800 C 37.961 51.900,39.403 52.800,39.858 52.800 C 40.313 52.800,41.251 53.366,41.943 54.057 C 43.641 55.755,43.895 360.148,42.200 361.583 C 38.997 364.293,33.715 367.173,31.924 367.185 C 27.447 367.217,24.768 379.854,28.457 383.543 C 29.589 384.675,42.215 384.800,155.485 384.800 L 281.255 384.800 286.028 383.118 C 288.652 382.193,293.680 381.170,297.200 380.845 C 300.720 380.521,304.764 379.651,306.186 378.914 C 307.609 378.177,310.489 377.369,312.586 377.120 C 316.936 376.604,320.800 375.308,320.800 374.367 C 320.800 374.015,321.970 373.472,323.400 373.160 C 326.379 372.510,334.019 368.592,336.396 366.496 C 337.278 365.718,340.009 363.779,342.464 362.188 C 346.648 359.477,360.800 345.492,360.800 344.069 C 360.800 343.712,361.893 342.045,363.229 340.363 C 364.565 338.682,366.737 335.047,368.055 332.284 C 369.373 329.522,370.773 327.064,371.164 326.822 C 371.556 326.580,372.126 325.247,372.431 323.859 C 372.736 322.472,373.843 319.722,374.892 317.749 C 375.949 315.763,376.800 312.790,376.800 311.089 C 376.800 309.400,377.520 306.123,378.400 303.809 C 380.788 297.524,380.789 269.293,378.400 263.009 C 377.521 260.694,376.801 257.576,376.800 256.080 C 376.800 254.584,375.936 251.524,374.880 249.280 C 373.823 247.036,372.543 244.300,372.034 243.200 C 371.525 242.100,370.139 239.525,368.954 237.477 C 367.769 235.429,366.161 232.640,365.380 231.278 C 363.251 227.566,347.097 212.015,344.800 211.467 C 343.700 211.205,342.080 210.379,341.200 209.632 C 338.773 207.573,331.229 204.118,327.338 203.284 C 321.637 202.062,321.722 198.270,327.485 196.730 C 329.308 196.243,331.444 195.159,332.231 194.322 C 333.018 193.485,334.098 192.800,334.631 192.799 C 335.164 192.798,336.563 191.988,337.739 190.999 C 338.916 190.010,341.040 188.300,342.460 187.200 C 347.964 182.934,351.236 179.730,352.953 176.923 C 353.936 175.315,355.204 173.524,355.770 172.943 C 356.337 172.361,356.800 171.513,356.800 171.058 C 356.800 170.603,357.700 169.161,358.800 167.854 C 359.900 166.547,360.800 164.759,360.800 163.881 C 360.800 163.003,361.659 160.781,362.709 158.942 C 363.758 157.104,364.860 153.620,365.156 151.200 C 365.453 148.780,366.236 145.969,366.897 144.953 C 368.139 143.043,368.092 118.430,366.832 110.800 C 365.774 104.398,363.792 97.133,362.313 94.232 C 361.481 92.599,360.800 90.195,360.800 88.889 C 360.800 87.583,360.170 85.890,359.400 85.127 C 357.933 83.675,355.152 79.401,353.459 76.000 C 352.157 73.385,345.058 64.976,342.000 62.428 C 340.680 61.328,337.440 58.424,334.800 55.974 C 332.160 53.524,329.100 51.070,328.000 50.521 C 323.056 48.051,321.091 46.897,319.600 45.588 C 318.720 44.816,317.100 43.915,316.000 43.587 C 314.900 43.259,313.100 42.361,312.000 41.593 C 310.900 40.824,308.380 39.937,306.400 39.622 C 304.420 39.306,301.613 38.364,300.161 37.528 C 298.635 36.649,294.664 35.684,290.739 35.238 C 287.008 34.814,283.563 34.224,283.083 33.928 C 278.315 30.981,253.096 30.303,134.280 29.924 L 28.961 29.588 28.080 32.114 M256.800 32.028 C 269.907 32.452,275.996 32.973,279.200 33.944 C 281.620 34.677,286.351 35.563,289.713 35.912 C 293.094 36.263,297.205 37.262,298.913 38.147 C 300.611 39.027,303.498 39.983,305.329 40.271 C 307.159 40.560,310.939 42.051,313.729 43.585 C 316.518 45.119,320.217 47.142,321.950 48.080 C 323.682 49.018,325.598 50.284,326.207 50.893 C 326.816 51.502,327.869 52.000,328.548 52.000 C 330.710 52.000,352.000 73.391,352.000 75.563 C 352.000 75.862,352.900 77.287,354.000 78.729 C 355.100 80.171,356.000 81.711,356.000 82.152 C 356.000 82.592,356.713 83.597,357.584 84.386 C 358.456 85.174,359.402 87.120,359.686 88.710 C 359.971 90.299,361.053 93.648,362.092 96.152 C 363.130 98.655,364.306 103.515,364.704 106.952 C 365.103 110.388,365.828 114.213,366.315 115.452 C 367.686 118.941,367.475 141.147,366.044 143.915 C 365.408 145.144,364.639 148.096,364.333 150.475 C 364.028 152.854,362.928 156.417,361.889 158.394 C 360.850 160.370,360.000 162.511,360.000 163.151 C 360.000 164.287,359.363 165.360,353.328 174.400 C 347.377 183.312,335.672 192.727,326.420 196.042 C 319.823 198.406,320.370 203.062,327.394 204.330 C 330.657 204.919,337.852 208.301,340.400 210.444 C 341.280 211.184,342.959 212.016,344.130 212.293 C 347.933 213.190,362.891 228.312,366.524 234.932 C 368.293 238.155,370.041 240.978,370.409 241.205 C 370.776 241.433,371.326 242.753,371.631 244.141 C 371.936 245.528,373.043 248.278,374.092 250.251 C 375.142 252.224,376.000 254.956,376.000 256.322 C 376.000 257.688,376.720 261.323,377.600 264.400 C 379.942 272.588,379.942 295.946,377.600 302.608 C 376.720 305.111,375.999 308.699,375.997 310.580 C 375.995 312.491,375.343 315.068,374.519 316.419 C 373.707 317.750,372.582 320.270,372.017 322.019 C 371.453 323.769,370.643 325.640,370.216 326.178 C 369.789 326.716,368.098 329.780,366.458 332.988 C 361.034 343.595,350.020 356.032,340.165 362.679 C 337.654 364.373,335.420 366.005,335.200 366.307 C 334.980 366.608,332.280 368.054,329.200 369.520 C 326.120 370.985,321.980 372.995,320.000 373.987 C 318.020 374.978,314.535 375.997,312.255 376.251 C 309.975 376.504,306.659 377.452,304.887 378.356 C 302.909 379.365,300.121 380.000,297.671 380.000 C 292.882 380.000,285.635 381.436,284.077 382.693 C 282.438 384.017,30.709 384.452,29.121 383.135 C 28.334 382.481,28.000 380.335,28.000 375.930 C 28.000 369.167,28.727 368.002,32.947 367.999 C 33.966 367.998,36.780 366.624,39.200 364.945 L 43.600 361.892 43.802 208.411 C 44.017 45.036,44.155 52.000,40.712 52.000 C 40.359 52.000,38.745 51.100,37.124 50.000 C 35.503 48.900,33.219 48.000,32.048 48.000 C 28.173 48.000,26.180 38.469,28.837 32.638 L 29.675 30.800 134.237 31.122 C 191.747 31.300,246.900 31.707,256.800 32.028 M95.800 72.856 C 93.464 74.230,93.657 176.057,96.000 178.400 C 97.907 180.307,259.861 180.987,263.382 179.103 C 265.455 177.993,274.785 176.000,277.905 176.000 C 279.174 176.000,281.334 175.324,282.706 174.497 C 284.078 173.671,286.561 172.752,288.225 172.456 C 289.888 172.160,292.549 171.037,294.136 169.959 C 295.724 168.882,297.423 167.989,297.912 167.977 C 300.283 167.914,311.356 155.272,312.726 151.064 C 313.252 149.449,314.151 147.738,314.725 147.262 C 318.497 144.131,318.160 111.003,314.321 107.528 C 313.484 106.771,312.800 105.547,312.800 104.807 C 312.800 101.149,296.184 84.000,292.640 84.000 C 292.052 84.000,290.247 83.100,288.628 82.000 C 287.009 80.900,284.718 80.000,283.537 80.000 C 282.355 80.000,280.154 79.237,278.644 78.304 C 275.159 76.150,261.347 74.510,238.000 73.477 C 212.676 72.357,97.504 71.854,95.800 72.856 M236.800 74.135 C 246.260 74.508,254.540 75.159,255.200 75.584 C 255.860 76.008,260.594 76.570,265.719 76.832 C 272.421 77.176,275.609 77.684,277.069 78.640 C 278.185 79.372,280.791 80.350,282.859 80.813 C 284.927 81.277,287.518 82.363,288.617 83.228 C 289.716 84.093,291.230 84.800,291.981 84.800 C 295.240 84.800,310.919 100.491,311.673 104.506 C 311.953 106.000,312.727 107.527,313.393 107.900 C 317.209 110.036,317.335 142.893,313.545 147.264 C 312.749 148.181,311.850 150.072,311.547 151.466 C 311.243 152.860,310.357 154.720,309.578 155.600 C 304.540 161.287,298.601 166.612,295.738 168.008 C 293.902 168.904,291.500 170.163,290.400 170.806 C 289.300 171.450,287.542 171.982,286.494 171.988 C 285.446 171.995,283.466 172.686,282.094 173.525 C 280.525 174.485,277.227 175.263,273.200 175.625 C 269.680 175.941,265.720 176.784,264.400 177.500 C 261.332 179.162,99.077 179.958,97.104 178.320 C 95.549 177.029,95.446 73.960,97.000 73.325 C 98.560 72.687,217.549 73.377,236.800 74.135 M96.000 221.583 C 93.772 222.991,93.813 338.238,96.043 341.073 L 97.716 343.200 181.458 343.188 C 250.426 343.179,265.765 342.983,268.400 342.076 C 270.160 341.471,274.300 340.725,277.600 340.419 C 284.608 339.769,296.103 336.084,301.452 332.771 C 303.513 331.495,306.460 329.751,308.000 328.895 C 310.876 327.298,314.698 323.535,317.034 320.000 C 317.760 318.900,319.620 316.200,321.165 314.000 C 322.711 311.800,323.981 309.275,323.988 308.388 C 323.994 307.502,324.810 305.342,325.800 303.588 C 328.428 298.931,329.018 270.449,326.583 265.761 C 325.737 264.133,324.805 261.514,324.513 259.943 C 324.220 258.371,323.085 255.871,321.990 254.387 C 320.896 252.903,320.000 251.280,320.000 250.780 C 320.000 250.031,315.602 245.423,308.186 238.400 C 305.925 236.260,298.888 232.000,297.613 232.000 C 296.930 232.000,295.118 231.155,293.586 230.123 C 292.054 229.091,289.232 228.000,287.316 227.700 C 285.400 227.400,282.700 226.552,281.316 225.816 C 278.270 224.195,266.577 223.208,244.963 222.746 C 236.472 222.565,228.846 222.053,228.015 221.608 C 226.020 220.541,97.688 220.516,96.000 221.583 M227.553 222.825 C 228.776 223.751,232.086 224.008,243.153 224.039 C 264.432 224.099,278.968 225.142,280.730 226.737 C 281.528 227.459,284.028 228.268,286.285 228.536 C 288.717 228.824,291.433 229.791,292.950 230.911 C 294.359 231.950,296.313 232.800,297.294 232.800 C 298.275 232.800,300.147 233.700,301.454 234.800 C 302.761 235.900,304.186 236.800,304.620 236.800 C 305.856 236.800,319.200 250.305,319.200 251.557 C 319.200 252.173,320.070 253.711,321.133 254.974 C 322.196 256.238,323.316 258.695,323.623 260.436 C 323.929 262.176,324.769 264.500,325.490 265.600 C 327.445 268.585,327.436 298.638,325.479 301.600 C 324.752 302.700,323.903 304.860,323.593 306.400 C 322.784 310.420,311.247 327.200,309.293 327.200 C 308.849 327.200,307.117 328.100,305.443 329.200 C 297.705 334.286,296.122 335.089,292.000 336.019 C 289.580 336.565,286.880 337.391,286.000 337.854 C 279.311 341.376,99.500 343.661,97.000 340.256 C 95.947 338.823,95.474 227.244,96.504 223.400 L 96.987 221.600 161.493 221.625 C 216.946 221.647,226.218 221.816,227.553 222.825 " stroke="none" fill="#8fd1f3" fill-rule="evenodd"></path><path id="path4" d="M27.898 28.521 C 26.466 30.243,25.882 45.537,27.158 47.921 C 27.834 49.185,28.826 49.600,31.174 49.600 C 33.588 49.600,34.407 49.961,34.799 51.198 C 35.078 52.077,36.235 53.029,37.369 53.314 C 42.887 54.699,42.400 39.731,42.400 208.038 L 42.400 359.276 40.283 361.238 C 39.119 362.317,37.682 363.200,37.090 363.200 C 36.498 363.200,35.564 363.920,35.014 364.800 C 34.355 365.856,33.149 366.400,31.465 366.400 C 27.269 366.400,26.400 367.997,26.400 375.710 C 26.400 379.447,26.773 383.202,27.228 384.053 C 28.042 385.573,30.309 385.599,156.228 385.565 C 282.777 385.531,290.346 385.387,292.238 382.976 C 292.940 382.083,295.199 381.665,300.584 381.430 C 306.819 381.159,308.259 380.836,309.836 379.354 C 311.267 378.010,312.681 377.600,315.890 377.600 C 319.328 377.600,320.408 377.242,321.930 375.600 C 323.026 374.418,324.667 373.600,325.944 373.600 C 328.279 373.600,331.120 372.340,332.400 370.737 C 332.840 370.186,333.920 369.613,334.800 369.463 C 335.680 369.313,336.755 368.383,337.190 367.395 C 337.670 366.302,338.682 365.600,339.776 365.600 C 340.764 365.600,342.687 364.610,344.049 363.400 C 346.776 360.978,355.135 353.197,356.400 351.902 C 359.928 348.293,360.721 347.306,361.833 345.142 C 362.527 343.790,363.658 342.216,364.347 341.644 C 365.036 341.072,365.600 340.059,365.600 339.394 C 365.600 338.728,366.500 337.349,367.600 336.330 C 368.776 335.240,369.600 333.592,369.600 332.330 C 369.600 331.068,370.424 329.420,371.600 328.330 C 372.793 327.224,373.600 325.595,373.600 324.290 C 373.600 323.087,374.398 321.254,375.372 320.217 C 376.702 318.801,377.272 316.939,377.655 312.757 C 378.004 308.956,378.648 306.651,379.683 305.508 C 382.238 302.684,381.990 263.369,379.400 260.612 C 377.975 259.096,377.600 257.762,377.600 254.210 C 377.600 250.591,377.213 249.263,375.600 247.346 C 374.500 246.039,373.600 244.057,373.600 242.942 C 373.600 240.937,371.781 238.400,370.343 238.400 C 369.934 238.400,369.600 237.303,369.600 235.962 C 369.600 234.449,368.894 232.855,367.740 231.762 C 366.718 230.793,365.636 229.336,365.336 228.524 C 365.037 227.712,364.107 226.869,363.270 226.650 C 362.433 226.431,361.561 225.539,361.333 224.667 C 361.105 223.795,360.205 222.895,359.333 222.667 C 358.461 222.439,357.561 221.539,357.333 220.667 C 357.105 219.795,356.172 218.886,355.259 218.647 C 354.347 218.409,353.600 217.708,353.600 217.090 C 353.600 216.471,352.707 215.559,351.615 215.061 C 350.524 214.564,349.424 213.504,349.170 212.706 C 348.894 211.836,347.599 211.047,345.933 210.735 C 344.406 210.448,342.816 209.577,342.399 208.799 C 341.983 208.021,340.643 207.136,339.421 206.833 C 338.199 206.529,336.402 205.536,335.426 204.626 C 334.302 203.576,332.178 202.828,329.626 202.583 C 324.585 202.099,323.165 197.600,328.053 197.600 C 331.094 197.600,333.600 196.322,333.600 194.772 C 333.600 194.057,334.375 193.600,335.586 193.600 C 337.405 193.600,339.771 191.955,344.298 187.540 C 345.234 186.628,346.664 185.636,347.476 185.336 C 348.288 185.037,349.137 184.086,349.362 183.222 C 349.588 182.359,350.454 181.437,351.286 181.173 C 352.119 180.908,352.800 180.406,352.800 180.056 C 352.800 179.706,353.880 178.061,355.200 176.400 C 356.520 174.739,357.600 172.529,357.600 171.490 C 357.600 170.364,358.073 169.600,358.772 169.600 C 360.151 169.600,361.600 167.183,361.600 164.884 C 361.600 163.992,362.341 162.572,363.247 161.728 C 364.317 160.731,365.135 158.548,365.581 155.497 C 365.958 152.913,366.927 149.540,367.734 148.000 C 370.451 142.812,370.156 107.071,367.374 104.288 C 366.678 103.592,365.839 101.043,365.511 98.624 C 365.145 95.925,364.274 93.543,363.257 92.461 C 362.204 91.339,361.600 89.629,361.600 87.767 C 361.600 85.524,361.131 84.529,359.600 83.526 C 358.374 82.723,357.600 81.463,357.600 80.270 C 357.600 79.199,356.750 77.531,355.711 76.562 C 354.672 75.593,353.574 74.008,353.270 73.041 C 352.967 72.073,352.017 71.059,351.159 70.787 C 350.302 70.515,349.600 69.702,349.600 68.981 C 349.600 67.392,340.388 58.400,338.759 58.400 C 338.121 58.400,337.600 57.852,337.600 57.183 C 337.600 56.513,336.700 55.556,335.600 55.054 C 334.500 54.553,333.600 53.653,333.600 53.054 C 333.600 52.456,332.615 51.523,331.411 50.983 C 330.207 50.442,328.596 49.379,327.831 48.620 C 327.066 47.862,325.501 47.005,324.353 46.717 C 323.205 46.429,321.412 45.339,320.369 44.296 C 319.326 43.253,317.850 42.400,317.088 42.400 C 316.326 42.400,314.926 41.670,313.976 40.777 C 312.887 39.754,310.648 38.976,307.924 38.672 C 305.247 38.374,302.923 37.576,301.822 36.576 C 300.469 35.349,298.558 34.867,293.831 34.564 C 289.248 34.270,287.029 33.730,285.374 32.506 C 283.268 30.950,281.848 30.827,262.404 30.529 C 243.358 30.237,241.567 30.089,240.315 28.706 C 238.326 26.508,29.723 26.326,27.898 28.521 M258.000 31.069 C 274.883 31.811,280.738 32.479,283.083 33.928 C 283.563 34.224,287.008 34.814,290.739 35.238 C 294.664 35.684,298.635 36.649,300.161 37.528 C 301.613 38.364,304.420 39.306,306.400 39.622 C 308.380 39.937,310.900 40.824,312.000 41.593 C 313.100 42.361,314.900 43.259,316.000 43.587 C 317.100 43.915,318.720 44.816,319.600 45.588 C 321.091 46.897,323.056 48.051,328.000 50.521 C 329.100 51.070,332.160 53.524,334.800 55.974 C 337.440 58.424,340.680 61.328,342.000 62.428 C 345.058 64.976,352.157 73.385,353.459 76.000 C 355.152 79.401,357.933 83.675,359.400 85.127 C 360.170 85.890,360.800 87.583,360.800 88.889 C 360.800 90.195,361.481 92.599,362.313 94.232 C 363.792 97.133,365.774 104.398,366.832 110.800 C 368.092 118.430,368.139 143.043,366.897 144.953 C 366.236 145.969,365.453 148.780,365.156 151.200 C 364.860 153.620,363.758 157.104,362.709 158.942 C 361.659 160.781,360.800 163.003,360.800 163.881 C 360.800 164.759,359.900 166.547,358.800 167.854 C 357.700 169.161,356.800 170.603,356.800 171.058 C 356.800 171.513,356.337 172.361,355.770 172.943 C 355.204 173.524,353.936 175.315,352.953 176.923 C 351.236 179.730,347.964 182.934,342.460 187.200 C 341.040 188.300,338.916 190.010,337.739 190.999 C 336.563 191.988,335.164 192.798,334.631 192.799 C 334.098 192.800,333.018 193.485,332.231 194.322 C 331.444 195.159,329.308 196.243,327.485 196.730 C 321.722 198.270,321.637 202.062,327.338 203.284 C 331.229 204.118,338.773 207.573,341.200 209.632 C 342.080 210.379,343.700 211.205,344.800 211.467 C 347.097 212.015,363.251 227.566,365.380 231.278 C 366.161 232.640,367.769 235.429,368.954 237.477 C 370.139 239.525,371.525 242.100,372.034 243.200 C 372.543 244.300,373.823 247.036,374.880 249.280 C 375.936 251.524,376.800 254.584,376.800 256.080 C 376.801 257.576,377.521 260.694,378.400 263.009 C 380.789 269.293,380.788 297.524,378.400 303.809 C 377.520 306.123,376.800 309.400,376.800 311.089 C 376.800 312.790,375.949 315.763,374.892 317.749 C 373.843 319.722,372.736 322.472,372.431 323.859 C 372.126 325.247,371.556 326.580,371.164 326.822 C 370.773 327.064,369.373 329.522,368.055 332.284 C 366.737 335.047,364.565 338.682,363.229 340.363 C 361.893 342.045,360.800 343.712,360.800 344.069 C 360.800 345.492,346.648 359.477,342.464 362.188 C 340.009 363.779,337.278 365.718,336.396 366.496 C 334.019 368.592,326.379 372.510,323.400 373.160 C 321.970 373.472,320.800 374.015,320.800 374.367 C 320.800 375.308,316.936 376.604,312.586 377.120 C 310.489 377.369,307.609 378.177,306.186 378.914 C 304.764 379.651,300.720 380.521,297.200 380.845 C 293.680 381.170,288.652 382.193,286.028 383.118 L 281.255 384.800 155.485 384.800 C 42.215 384.800,29.589 384.675,28.457 383.543 C 24.768 379.854,27.447 367.217,31.924 367.185 C 33.715 367.173,38.997 364.293,42.200 361.583 C 43.895 360.148,43.641 55.755,41.943 54.057 C 41.251 53.366,40.313 52.800,39.858 52.800 C 39.403 52.800,37.961 51.900,36.654 50.800 C 35.335 49.690,33.262 48.800,31.996 48.800 C 27.435 48.800,25.354 39.933,28.080 32.114 L 28.961 29.588 134.280 29.924 C 192.206 30.109,247.880 30.624,258.000 31.069 M97.000 73.325 C 95.446 73.960,95.549 177.029,97.104 178.320 C 99.077 179.958,261.332 179.162,264.400 177.500 C 265.720 176.784,269.680 175.941,273.200 175.625 C 277.227 175.263,280.525 174.485,282.094 173.525 C 283.466 172.686,285.446 171.995,286.494 171.988 C 287.542 171.982,289.300 171.450,290.400 170.806 C 291.500 170.163,293.902 168.904,295.738 168.008 C 298.601 166.612,304.540 161.287,309.578 155.600 C 310.357 154.720,311.243 152.860,311.547 151.466 C 311.850 150.072,312.749 148.181,313.545 147.264 C 317.335 142.893,317.209 110.036,313.393 107.900 C 312.727 107.527,311.953 106.000,311.673 104.506 C 310.919 100.491,295.240 84.800,291.981 84.800 C 291.230 84.800,289.716 84.093,288.617 83.228 C 287.518 82.363,284.927 81.277,282.859 80.813 C 280.791 80.350,278.185 79.372,277.069 78.640 C 275.609 77.684,272.421 77.176,265.719 76.832 C 260.594 76.570,255.860 76.008,255.200 75.584 C 252.667 73.956,100.763 71.787,97.000 73.325 M220.102 75.069 C 221.254 76.414,223.496 76.583,246.724 77.079 C 269.990 77.576,272.222 77.745,273.700 79.121 C 275.364 80.672,278.605 81.600,282.356 81.600 C 283.658 81.600,285.200 82.392,286.250 83.600 C 287.503 85.041,288.794 85.600,290.870 85.600 C 293.082 85.600,293.847 85.973,294.170 87.209 C 294.402 88.094,295.429 89.028,296.453 89.285 C 297.478 89.542,298.883 90.618,299.576 91.676 C 300.270 92.734,301.369 93.600,302.018 93.600 C 302.668 93.600,303.200 94.151,303.200 94.825 C 303.200 95.499,303.753 96.263,304.430 96.522 C 305.106 96.782,306.195 98.030,306.850 99.297 C 307.505 100.564,308.572 101.600,309.221 101.600 C 309.937 101.600,310.400 102.365,310.400 103.548 C 310.400 106.452,311.806 109.600,313.103 109.600 C 316.044 109.600,315.670 142.059,312.692 145.285 C 311.837 146.212,310.918 148.319,310.650 149.967 C 310.383 151.615,309.407 153.808,308.482 154.840 C 307.557 155.872,305.900 157.811,304.800 159.149 C 303.700 160.487,301.810 162.135,300.600 162.811 C 299.390 163.488,298.400 164.526,298.400 165.118 C 298.400 165.761,297.076 166.407,295.119 166.720 C 292.790 167.093,291.719 167.702,291.426 168.822 C 291.126 169.968,290.327 170.401,288.507 170.404 C 284.908 170.411,280.228 171.852,279.749 173.101 C 279.468 173.833,276.892 174.350,271.576 174.740 C 267.307 175.054,262.950 175.639,261.894 176.040 C 260.784 176.462,225.767 176.790,178.986 176.815 L 98.000 176.860 97.794 125.230 L 97.588 73.600 158.216 73.600 C 216.047 73.600,218.902 73.668,220.102 75.069 M96.504 223.400 C 95.474 227.244,95.947 338.823,97.000 340.256 C 99.500 343.661,279.311 341.376,286.000 337.854 C 286.880 337.391,289.580 336.565,292.000 336.019 C 296.122 335.089,297.705 334.286,305.443 329.200 C 307.117 328.100,308.849 327.200,309.293 327.200 C 311.247 327.200,322.784 310.420,323.593 306.400 C 323.903 304.860,324.752 302.700,325.479 301.600 C 327.436 298.638,327.445 268.585,325.490 265.600 C 324.769 264.500,323.929 262.176,323.623 260.436 C 323.316 258.695,322.196 256.238,321.133 254.974 C 320.070 253.711,319.200 252.173,319.200 251.557 C 319.200 250.305,305.856 236.800,304.620 236.800 C 304.186 236.800,302.761 235.900,301.454 234.800 C 300.147 233.700,298.275 232.800,297.294 232.800 C 296.313 232.800,294.359 231.950,292.950 230.911 C 291.433 229.791,288.717 228.824,286.285 228.536 C 284.028 228.268,281.528 227.459,280.730 226.737 C 278.968 225.142,264.432 224.099,243.153 224.039 C 232.086 224.008,228.776 223.751,227.553 222.825 C 226.218 221.816,216.946 221.647,161.493 221.625 L 96.987 221.600 96.504 223.400 M227.226 224.814 C 228.091 225.277,238.281 225.600,252.024 225.600 C 274.828 225.600,275.409 225.640,277.842 227.373 C 279.586 228.614,281.831 229.241,285.334 229.464 C 289.530 229.731,290.537 230.090,291.586 231.691 C 292.551 233.164,293.551 233.600,295.965 233.600 C 298.335 233.600,299.209 233.968,299.575 235.120 C 299.840 235.957,300.999 236.877,302.149 237.166 C 303.300 237.455,304.933 238.571,305.779 239.646 C 306.624 240.720,307.968 241.600,308.765 241.600 C 309.562 241.600,310.409 242.347,310.647 243.259 C 310.886 244.172,311.828 245.114,312.741 245.353 C 313.653 245.591,314.400 246.287,314.400 246.899 C 314.400 247.510,315.282 248.778,316.361 249.715 C 317.439 250.653,318.547 252.450,318.824 253.709 C 319.100 254.968,319.960 256.448,320.735 256.999 C 321.644 257.645,322.325 259.555,322.656 262.382 C 322.940 264.815,323.886 267.735,324.784 268.949 C 327.182 272.194,327.236 295.084,324.852 298.115 C 324.001 299.197,323.062 302.023,322.766 304.396 C 322.431 307.073,321.653 309.228,320.714 310.078 C 319.881 310.832,319.200 311.879,319.200 312.405 C 319.200 312.932,318.210 314.475,317.000 315.835 C 313.653 319.596,310.860 323.329,310.263 324.840 C 309.964 325.597,308.420 326.443,306.774 326.752 C 304.817 327.119,303.686 327.827,303.418 328.853 C 303.195 329.704,302.386 330.400,301.618 330.400 C 300.851 330.400,298.955 331.260,297.406 332.312 C 295.834 333.379,292.690 334.477,290.294 334.796 C 287.637 335.149,285.290 336.021,284.136 337.084 L 282.272 338.800 189.936 339.048 L 97.600 339.297 97.600 281.782 C 97.600 250.148,97.750 224.117,97.933 223.933 C 98.675 223.191,225.812 224.057,227.226 224.814 " stroke="none" fill="#bfe5f8" fill-rule="evenodd"></path></g></svg>